<?xml version="1.0" encoding="UTF-8" standalone="no"?>
<svg
   id="visual"
   viewBox="0 0 960 540"
   width="960"
   height="540"
   version="1.1"
   sodipodi:docname="stacked-peaks-blue.svg"
   inkscape:version="1.3.2 (091e20e, 2023-11-25)"
   xmlns:inkscape="http://www.inkscape.org/namespaces/inkscape"
   xmlns:sodipodi="http://sodipodi.sourceforge.net/DTD/sodipodi-0.dtd"
   xmlns="http://www.w3.org/2000/svg"
   xmlns:svg="http://www.w3.org/2000/svg">
  <defs
     id="defs5" />
  <sodipodi:namedview
     id="namedview5"
     pagecolor="#ffffff"
     bordercolor="#000000"
     borderopacity="0.25"
     inkscape:showpageshadow="2"
     inkscape:pageopacity="0.0"
     inkscape:pagecheckerboard="0"
     inkscape:deskcolor="#d1d1d1"
     inkscape:zoom="0.43703704"
     inkscape:cx="479.36441"
     inkscape:cy="268.85593"
     inkscape:window-width="1520"
     inkscape:window-height="876"
     inkscape:window-x="0"
     inkscape:window-y="25"
     inkscape:window-maximized="0"
     inkscape:current-layer="visual" />
  <path
     d="M0 104L87 158L175 125L262 131L349 163L436 163L524 168L611 174L698 136L785 104L873 125L960 147L960 0L873 0L785 0L698 0L611 0L524 0L436 0L349 0L262 0L175 0L87 0L0 0Z"
     fill="#003223"
     id="path1" />
  <path
     d="M0 185L87 195L175 212L262 217L349 206L436 239L524 233L611 222L698 185L785 147L873 190L960 190L960 145L873 123L785 102L698 134L611 172L524 166L436 161L349 161L262 129L175 123L87 156L0 102Z"
     fill="#013b2d"
     id="path2" />
  <path
     d="M0 228L87 249L175 287L262 309L349 303L436 336L524 298L611 282L698 260L785 255L873 287L960 255L960 188L873 188L785 145L698 183L611 220L524 231L436 237L349 204L262 215L175 210L87 193L0 183Z"
     fill="#014537"
     id="path3" />
  <path
     d="M0 357L87 395L175 347L262 368L349 428L436 449L524 363L611 390L698 352L785 379L873 368L960 401L960 253L873 285L785 253L698 258L611 280L524 296L436 334L349 301L262 307L175 285L87 247L0 226Z"
     fill="#024f42"
     id="path4" />
  <path
     d="M0 541L87 541L175 541L262 541L349 541L436 541L524 541L611 541L698 541L785 541L873 541L960 541L960 399L873 366L785 377L698 350L611 388L524 361L436 447L349 426L262 366L175 345L87 393L0 355Z"
     fill="#02594e"
     id="path5" />
  <path
     style="fill:#000080;stroke-width:2.28814"
     d="m 543.4322,166.82305 c -30.83262,-2.27947 -87.46398,-4.8223 -125.84745,-5.65074 l -69.78814,-1.50625 -43.47458,-15.66271 c -42.42622,-15.28501 -44.25016,-15.72036 -75.63789,-18.05337 -53.81619,-4.00009 -52.11598,-4.23241 -99.29118,13.56707 L 87.175753,155.44584 44.159912,128.87692 1.1440678,102.308 V 51.154001 0 H 480.50847 959.87288 v 72.230464 c 0,67.743206 -0.24876,72.152556 -4.00424,70.976466 -10.72154,-3.35764 -163.5962,-40.33235 -168.12289,-40.6627 -7.32027,-0.5342 -74.33102,24.5661 -130.00108,48.69468 -25.8506,11.20419 -49.53281,20.22667 -52.62712,20.04994 -3.09432,-0.17673 -30.85272,-2.18634 -61.68535,-4.4658 z"
     id="path6" />
  <path
     style="fill:#002255;stroke-width:2.28814"
     d="m 537.71186,165.66596 c -22.65254,-1.65041 -75.16525,-4.00629 -116.69491,-5.23529 -56.91129,-1.6842 -77.48089,-3.05771 -83.51695,-5.57678 -4.40466,-1.83822 -23.16287,-8.56028 -41.68491,-14.9379 -36.59148,-12.59939 -60.12532,-16.36583 -102.13804,-16.34653 -23.19405,0.0107 -26.57772,0.92073 -89.56688,24.09009 L 86.949153,153.9719 44.618644,127.81963 2.2881356,101.66735 1.6723262,50.833673 1.0565166,0 H 480.82577 960.59504 l -1.37117,70.035504 c -0.75412,38.519526 -1.77982,70.444186 -2.27932,70.943676 -0.4995,0.4995 -32.7367,-6.82314 -71.63823,-16.27254 -38.90153,-9.4494 -76.84463,-18.65542 -84.318,-20.45781 -13.18587,-3.18011 -14.2045,-3.0796 -34.4215,3.39648 -20.0268,6.41515 -59.0596,21.70496 -124.74479,48.86464 -35.37041,14.62505 -32.50461,14.37301 -104.11017,9.15601 z"
     id="path10" />
  <path
     style="fill:#003380;stroke-width:2.28814"
     d="m 391.27119,219.4929 -41.18644,-15.90882 -45.76272,5.48969 c -43.82685,5.25747 -47.65017,5.3671 -90.38135,2.59183 -32.5374,-2.11321 -55.77057,-5.10637 -85.80509,-11.0544 C 95.51215,194.15047 16.828539,183.05085 3.6527998,183.05085 c -1.7211706,0 -2.508732,-12.21127 -2.508732,-38.89831 0,-21.39407 0.4894331,-38.8983 1.0876293,-38.8983 0.5981962,0 19.2963709,11.32627 41.5515009,25.16949 22.255127,13.84322 41.761236,25.16949 43.346907,25.16949 1.585671,0 19.697875,-6.36119 40.249345,-14.13597 34.23631,-12.95186 39.19456,-14.21836 59.19211,-15.11959 12.00419,-0.54099 33.73934,0.10526 48.30034,1.43611 23.56256,2.15358 31.4807,4.16824 71.98777,18.31625 l 45.51321,15.89651 73.22034,1.31509 c 40.27119,0.7233 88.66525,2.51795 107.54237,3.98811 18.87712,1.47017 45.64831,2.78628 59.49153,2.9247 l 25.16949,0.25167 41.18644,-17.89032 c 45.53303,-19.77837 91.1636,-37.68794 113.96949,-44.73196 l 14.87515,-4.59447 64.85734,15.69128 c 35.67153,8.63021 74.38171,18.04517 86.0226,20.92213 l 21.16525,5.23084 v 21.26676 21.26676 h -43.22704 -43.22705 l -43.95184,-21.55217 -43.95183,-21.55218 -17.50332,7.60271 c -9.62683,4.18149 -48.7429,21.03243 -86.9246,37.44653 l -69.42128,29.84382 -46.12957,5.736 c -45.98846,5.71846 -104.48275,10.65016 -123.21089,10.38801 -6.48116,-0.0907 -24.00318,-5.5981 -51.05427,-16.04694 z"
     id="path11" />
  <path
     style="fill:#0044aa;stroke-width:2.28814"
     d="m 433.36831,333.0717 c -0.62613,-0.62612 -19.89333,-8.25897 -42.81603,-16.96188 l -41.67764,-15.82346 -42.86952,3.09458 -42.86953,3.09458 -44.61864,-11.27762 C 181.93698,285.9521 165.85963,280.45185 129.27966,264.66875 91.383296,248.31768 78.369653,243.93176 42.902542,235.55756 L 1.1440678,225.69789 v -21.47772 c 0,-19.35404 0.3959303,-21.36753 4.0042373,-20.36339 2.2023305,0.61288 11.2118639,1.77255 20.0211869,2.57706 21.678398,1.97977 85.106788,11.70576 120.127118,18.42007 39.21425,7.5184 110.82793,11.70724 137.24624,8.02785 10.72008,-1.49304 30.30249,-3.95349 43.51647,-5.46767 l 24.02543,-2.75305 43.21299,16.55189 43.213,16.55189 43.73615,-3.19131 c 24.0549,-1.75522 62.78489,-5.44918 86.06667,-8.20879 l 42.33051,-5.01749 88.52307,-37.7539 88.52307,-37.7539 42.74656,20.89384 42.74653,20.89385 h 44.34478 44.3448 l -0.0281,32.60593 -0.0281,32.60593 -43.31269,15.70561 -43.31267,15.70562 -44.18037,-15.9911 -44.18035,-15.99111 -44.61865,2.81222 c -40.3717,2.54454 -48.53888,3.81202 -85.80508,13.31624 -22.65254,5.77721 -61.26483,14.23676 -85.80509,18.799 -42.9645,7.98746 -46.18793,8.97542 -86.94915,26.6496 -23.28178,10.09504 -43.41396,18.80697 -44.73815,19.35984 -1.32421,0.55287 -2.91996,0.49293 -3.54608,-0.1332 z"
     id="path12" />
  <path
     style="fill:#0055d4;stroke-width:2.28814"
     d="m 390.69172,435.61071 -41.76591,-10.19316 -41.47228,-28.69654 c -22.80976,-15.78309 -43.65703,-29.64887 -46.32731,-30.81283 -5.79056,-2.52409 -80.05564,-20.39971 -84.75153,-20.39971 -1.79766,0 -22.13899,10.29029 -45.20294,22.86731 -23.06395,12.57702 -43.050438,22.87363 -44.41441,22.88136 -1.363969,0.008 -20.927528,-8.08971 -43.474576,-17.99429 L 2.2881356,355.25451 1.6801864,290.72437 C 1.1076926,229.9576 1.3078569,226.26505 5.1123898,227.40836 c 2.222084,0.66776 17.4016382,4.45277 33.7323432,8.41114 37.586405,9.1105 57.60569,15.95387 101.875607,34.82506 25.45666,10.85155 47.41285,18.16574 77.79661,25.91611 l 42.33051,10.79777 44.64285,-2.83616 44.64283,-2.83615 38.87412,15.24596 c 21.38075,8.38527 40.96847,15.74868 43.52826,16.36312 2.60488,0.62525 14.07777,-3.02978 26.05614,-8.30095 52.50189,-23.10388 71.77925,-29.48006 111.24224,-36.79448 21.34558,-3.95638 57.3132,-11.74478 79.92801,-17.30756 43.52352,-10.70588 62.58909,-13.45929 108.75504,-15.7062 l 28.60169,-1.39205 42.89431,15.82736 42.89433,15.82736 42.91075,-15.47484 42.91078,-15.47484 0.6294,36.49628 c 0.34617,20.07296 0.34617,52.30478 0,71.62628 l -0.6294,35.12999 -42.3305,-16.07663 -42.33051,-16.07663 -40.04238,4.8616 c -22.0233,2.67389 -42.97059,4.84647 -46.54955,4.82797 -3.57894,-0.0185 -25.06614,-5.82116 -47.74932,-12.89479 l -41.24218,-12.86117 -43.71657,18.83817 -43.71659,18.83817 -42.63703,-13.09586 c -33.23636,-10.20846 -43.59157,-12.56767 -46.96629,-10.70026 -2.38108,1.31758 -22.33728,20.48081 -44.34709,42.58495 -22.00983,22.10415 -41.05856,40.10328 -42.33051,39.99808 -1.27197,-0.10521 -21.10732,-4.77821 -44.07857,-10.38445 z"
     id="path13" />
  <path
     style="fill:#2a7fff;stroke-width:2.28814"
     d="m 1.1440678,448.47458 c 0,-50.33899 0.4510215,-91.52543 1.0022697,-91.52543 0.5512485,0 19.7876345,8.20765 42.7475235,18.23923 l 41.745251,18.23923 32.333798,-16.9852 c 17.7836,-9.34186 36.90209,-19.59643 42.48553,-22.78794 5.58345,-3.1915 13.20342,-5.81514 16.93326,-5.8303 3.72983,-0.0152 23.77012,4.16906 44.53395,9.29827 l 37.75244,9.32582 43.20334,29.76494 43.20334,29.76494 40.91708,9.9513 c 22.50439,5.47322 42.8993,10.2775 45.322,10.67618 3.12371,0.51405 16.82498,-11.49556 47.10644,-41.29032 40.91488,-40.2573 43.00654,-41.95455 49.99155,-40.56549 4.0095,0.79735 23.24977,6.2234 42.75613,12.0579 19.50635,5.83449 36.49576,10.60351 37.75423,10.59782 1.25848,-0.006 21.67894,-8.30909 45.37883,-18.45199 l 43.0907,-18.44164 12.96863,4.23043 c 7.13273,2.32673 26.47022,8.44666 42.97219,13.59985 l 30.00354,9.36942 44.10748,-5.59711 44.10745,-5.59712 43.15593,16.37731 43.15593,16.37732 V 469.636 540 H 480.50847 1.1440678 Z"
     id="path14" />
  <path
     style="fill:#87aade;stroke-width:2.28814"
     d="m 2.1237255,450.20288 c 0.9159832,-49.38841 1.9321539,-90.06384 2.2581571,-90.38985 0.3260033,-0.326 18.3558194,7.13355 40.0662584,16.57678 21.71044,9.44323 40.669542,17.16546 42.131336,17.16052 1.461796,-0.005 20.162053,-9.38148 41.556113,-20.83674 23.527,-12.59732 42.51509,-21.27504 48.05085,-21.95967 5.97229,-0.73861 21.87356,1.81199 45.76271,7.34045 l 36.61017,8.47237 43.47458,29.97766 43.47457,29.97766 44.5554,10.85977 44.5554,10.85976 7.41466,-5.65544 c 4.07805,-3.11049 23.95708,-21.59197 44.17557,-41.06995 21.24433,-20.46624 38.60302,-35.41451 41.1251,-35.41451 2.4003,0 21.98466,5.08487 43.52077,11.2997 45.34307,13.08496 35.57117,14.17144 92.60925,-10.29665 l 35.94054,-15.41771 42.52377,13.57128 42.52376,13.57129 44.80755,-5.46937 44.80756,-5.46937 42.33051,16.07097 42.3305,16.07096 0.6051,69.98361 0.6051,69.9836 H 480.19866 0.45830166 Z"
     id="path15" />
  <path
     style="fill:#3771c8;stroke-width:2.28814"
     d="m 388.74543,434.00512 -39.13593,-9.55597 -35.22848,-24.25593 c -53.01665,-36.50365 -50.46767,-35.24516 -92.01583,-45.43022 -20.76374,-5.08999 -40.6224,-9.25453 -44.13035,-9.25453 -3.66253,0 -23.78227,9.25498 -47.25553,21.73729 -22.48259,11.95551 -42.616453,21.71149 -44.741928,21.67995 -2.125476,-0.0315 -21.368738,-7.65196 -42.762806,-16.93428 L 4.5762712,355.11448 3.968042,291.96402 C 3.6335158,257.23127 3.95116,228.81356 4.6739181,228.81356 c 3.6950978,0 59.5157789,14.69539 75.4108279,19.8527 10.067796,3.26661 34.264834,12.36767 53.771184,20.22459 41.1414,16.57126 53.99179,20.81152 96.1017,31.71085 l 30.88983,7.99523 44.48586,-2.88112 44.48589,-2.88113 41.09997,15.83202 c 28.85547,11.11533 42.95302,15.4614 47.31986,14.58804 3.42092,-0.68419 21.02382,-7.37527 39.11753,-14.86906 41.45564,-17.1695 55.47287,-21.42871 102.50181,-31.1457 20.86602,-4.31128 53.38315,-11.41414 72.26026,-15.78414 41.43533,-9.59217 61.27582,-12.51059 101.82204,-14.97746 l 30.88983,-1.87936 44.04979,15.97262 44.04981,15.97263 38.32307,-13.78282 c 21.07771,-7.58054 40.125,-14.50215 42.32733,-15.38134 3.76135,-1.50157 4.00424,2.66448 4.00424,68.67921 0,66.02399 -0.24236,70.17952 -4.00424,68.6549 -2.20233,-0.89256 -20.99365,-8.04981 -41.75848,-15.90498 l -37.75423,-14.28214 -33.17797,4.13429 c -51.46539,6.41308 -55.79841,6.15605 -94.95763,-5.63289 -18.87712,-5.68299 -37.1177,-11.39588 -40.53459,-12.69532 -5.42337,-2.06248 -11.56461,-0.0483 -48.34238,15.85549 -23.1714,10.01996 -44.1456,18.21811 -46.60932,18.21811 -2.46373,0 -19.32196,-4.50971 -37.46271,-10.02159 -18.14077,-5.51187 -37.29856,-10.74043 -42.57289,-11.61901 l -9.58969,-1.59742 -42.23075,41.36477 c -25.35629,24.83633 -43.92451,41.2974 -46.46963,41.19617 -2.33138,-0.0927 -21.85005,-4.4688 -43.37481,-9.72458 z"
     id="path16" />
  <path
     style="fill:#3771c8;stroke-width:2.28814"
     d="m 2.6662381,466.20763 c 0.69187,-40.58581 1.9194957,-80.70689 2.7280571,-89.15796 l 1.4701116,-15.36558 37.4751462,15.93762 c 20.611331,8.76568 39.440825,15.93761 41.843317,15.93761 2.402494,0 22.60648,-9.37559 44.89773,-20.83466 40.25655,-20.6943 40.62285,-20.82734 54.37675,-19.74905 7.61595,0.59708 26.66468,3.97574 42.33051,7.50813 l 28.48333,6.42253 44.38495,30.37878 44.38496,30.37877 43.08266,10.40538 c 23.69548,5.72296 44.56561,10.40538 46.37811,10.40538 1.81248,0 18.99468,-14.67267 38.18267,-32.60594 46.48308,-43.44348 51.27915,-47.47881 56.42956,-47.47881 2.42197,0 19.76254,4.21826 38.53459,9.3739 44.01597,12.08877 46.68819,11.85317 93.32991,-8.22868 19.97467,-8.60021 37.52314,-15.63674 38.99658,-15.63674 1.47343,0 20.97045,5.88443 43.3267,13.07651 l 40.64774,13.07651 44.91237,-5.5243 44.91238,-5.52429 41.04313,15.61115 c 22.57372,8.58613 41.33272,15.91327 41.68667,16.28253 0.35396,0.36926 0.9993,31.81891 1.43409,69.88812 l 0.79055,69.21674 -478.66025,-6.4e-4 L 1.4082925,540 Z"
     id="path17" />
  <path
     style="fill:#2c5aa0;stroke-width:2.28814"
     d="m 386.12892,432.5586 -34.888,-8.57132 -37.55245,-25.50063 c -20.65385,-14.02534 -42.63895,-28.05542 -48.85577,-31.17795 -12.61561,-6.33646 -72.69214,-21.80023 -84.69359,-21.80023 -5.1719,0 -21.27968,6.81192 -48.69568,20.59322 -22.53205,11.32628 -43.305413,20.56641 -46.163026,20.53364 -2.857612,-0.0328 -21.670235,-7.1494 -41.805828,-15.81472 L 6.8644068,355.06548 6.2555982,293.08359 c -0.4793637,-48.8033 0.00714,-61.98035 2.2881356,-61.97463 5.2820592,0.0132 63.3561952,15.94469 82.4781212,22.62619 10.344755,3.61462 31.679415,11.72391 47.410345,18.02065 33.22354,13.29864 54.21887,20.09994 93.68799,30.3496 l 28.47612,7.3949 44.74422,-2.73561 44.74422,-2.73561 36.61017,13.92644 c 20.13559,7.65954 40.2259,14.51059 44.64511,15.22456 6.38285,1.03121 15.21899,-1.57022 42.97478,-12.65211 44.53742,-17.78222 66.94428,-24.11085 145.79469,-41.17856 76.04852,-16.46121 98.09805,-19.97179 137.44746,-21.88349 l 29.56168,-1.43618 42.87012,15.84471 42.87012,15.84471 40.36791,-14.66817 c 22.20235,-8.06749 41.00824,-14.02782 41.7909,-13.24517 1.82494,1.82496 1.87737,130.62964 0.0539,132.45312 -0.753,0.753 -19.23853,-5.43399 -41.07894,-13.74888 l -39.70982,-15.11798 -31.59702,3.91466 c -46.2359,5.72832 -66.02738,4.12003 -108.02483,-8.7783 l -34.15262,-10.489 -11.61009,4.23449 c -6.38557,2.32897 -25.51054,9.97424 -42.49994,16.9895 -16.98941,7.01526 -33.46399,12.76832 -36.61017,12.78458 -3.14619,0.0163 -21.7372,-4.49473 -41.31335,-10.02443 -19.57616,-5.5297 -38.17353,-10.39215 -41.32752,-10.80546 -4.72287,-0.6189 -13.31784,6.40587 -48.72109,39.82029 -37.71722,35.59842 -43.87056,40.54232 -50.1979,40.33163 -3.96623,-0.13207 -22.91094,-4.09722 -42.09936,-8.81144 z"
     id="path18" />
  <path
     style="fill:#214478;stroke-width:2.28814"
     d="m 391.27766,315.4355 -41.17996,-16.03524 -44.62512,2.75022 -44.62512,2.75021 -32.81242,-8.37911 C 189.24189,286.6152 163.00649,277.69325 117.45441,258.9161 95.553069,249.8881 69.715377,241.52105 43.09,234.83459 L 2.2881356,224.58799 v -18.29452 c 0,-10.06199 0.6978905,-18.99027 1.5508681,-19.84063 2.085772,-2.07936 48.3811723,3.89329 115.1440463,14.85495 92.39393,15.16997 129.77603,16.91811 193.02753,9.02677 l 38.07417,-4.75019 42.3305,16.47571 42.33051,16.47571 40.04238,-2.76485 c 22.0233,-1.52067 61.19044,-5.15102 87.03809,-8.06744 l 46.99572,-5.3026 84.57207,-35.96177 c 46.51464,-19.77897 86.2019,-36.81415 88.19388,-37.85594 2.52267,-1.31933 16.3148,4.31772 45.44702,18.57488 l 41.82519,20.46905 h 45.56921 45.5692 l -0.63484,32.25681 -0.63487,32.25681 -42.77472,15.55958 -42.77473,15.55957 -43.03036,-15.88636 -43.03036,-15.88636 -27.45762,1.38705 c -44.35107,2.24044 -66.36067,5.28961 -106.39831,14.74023 -20.76483,4.90141 -57.99193,13.07833 -82.7269,18.17094 -47.36617,9.7521 -56.04763,12.52969 -103.62792,33.15533 -16.28965,7.06142 -30.70491,12.76943 -32.0339,12.68448 -1.329,-0.085 -20.94736,-7.37033 -43.59633,-16.1897 z"
     id="path19" />
</svg>
